<?xml version="1.0" encoding="utf-8"?>
<!-- Generator: Adobe Illustrator 21.0.2, SVG Export Plug-In . SVG Version: 6.00 Build 0)  -->
<svg version="1.1" id="Calque_1" xmlns="http://www.w3.org/2000/svg" xmlns:xlink="http://www.w3.org/1999/xlink" x="0px" y="0px"
	 viewBox="0 0 14 20" style="enable-background:new 0 0 50 50;" xml:space="preserve">
<path d="M30,22.5h-0.5V21c0-2.5-2-4.5-4.5-4.5s-4.5,2-4.5,4.5v1.5H20c-0.8,0-1.5,0.7-1.5,1.5v8c0,0.8,0.7,1.5,1.5,1.5h10
	c0.8,0,1.5-0.7,1.5-1.5v-8C31.5,23.2,30.8,22.5,30,22.5z M21.5,21c0-1.9,1.6-3.5,3.5-3.5s3.5,1.6,3.5,3.5v1.5h-7V21z M30.5,32
	c0,0.3-0.2,0.5-0.5,0.5H20c-0.3,0-0.5-0.2-0.5-0.5v-8c0-0.3,0.2-0.5,0.5-0.5h10c0.3,0,0.5,0.2,0.5,0.5V32z"  transform="translate(-20, -15)" fill="white"/>
</svg>
