<?xml version="1.0" encoding="utf-8"?>
<!-- Generator: Adobe Illustrator 21.0.2, SVG Export Plug-In . SVG Version: 6.00 Build 0)  -->
<svg version="1.1" id="Calque_1" xmlns="http://www.w3.org/2000/svg" xmlns:xlink="http://www.w3.org/1999/xlink" x="0px" y="0px"
	 viewBox="0 0 14 20" style="enable-background:new 0 0 50 50;" xml:space="preserve">
<path d="M24.5,26c-3,0-5.5-2.5-5.5-5.5s2.5-5.5,5.5-5.5s5.5,2.5,5.5,5.5S27.5,26,24.5,26z M24.5,16C22,16,20,18,20,20.5
	s2,4.5,4.5,4.5s4.5-2,4.5-4.5S27,16,24.5,16z" transform="translate(-20, -15)" fill="white"/>
<path d="M32.5,35h-16c-0.8,0-1.5-0.7-1.5-1.5c0-0.1,0-1.7,1.2-3.3c0.7-0.9,1.7-1.7,2.9-2.2c1.5-0.7,3.3-1,5.4-1s3.9,0.3,5.4,1
	c1.2,0.5,2.2,1.3,2.9,2.2c1.2,1.6,1.2,3.2,1.2,3.3C34,34.3,33.3,35,32.5,35z M24.5,28c-3.5,0-6.1,1-7.4,2.8c-1,1.4-1.1,2.7-1.1,2.7
	c0,0.3,0.2,0.5,0.5,0.5h16c0.3,0,0.5-0.2,0.5-0.5c0,0,0-1.4-1.1-2.7C30.6,29,28,28,24.5,28z" transform="translate(-20, -15)" fill="white"/>
</svg>
