<?xml version="1.0" encoding="utf-8"?>
<!-- Generator: Adobe Illustrator 21.0.2, SVG Export Plug-In . SVG Version: 6.00 Build 0)  -->
<svg version="1.1" id="Calque_1" xmlns="http://www.w3.org/2000/svg" xmlns:xlink="http://www.w3.org/1999/xlink" x="0px" y="0px"
	 viewBox="0 0 14 20" style="enable-background:new 0 0 50 50;" xml:space="preserve">
<g>
	<path d="M25,35c-0.2,0-0.3-0.1-0.4-0.2c-0.1-0.1-1.4-1.8-2.8-4.4c-0.8-1.5-1.5-3-1.9-4.4c-0.6-1.8-0.9-3.5-0.9-5c0-3.3,2.7-6,6-6
		s6,2.7,6,6c0,1.5-0.3,3.2-0.9,5c-0.5,1.4-1.1,2.9-1.9,4.4c-1.4,2.6-2.7,4.3-2.8,4.4C25.3,34.9,25.2,35,25,35L25,35z M25,16
		c-2.8,0-5,2.2-5,5c0,3.3,1.5,6.7,2.7,9c0.9,1.7,1.8,3,2.3,3.7c0.5-0.7,1.4-2,2.3-3.7c1.2-2.3,2.7-5.7,2.7-8.9
		C30,18.2,27.8,16,25,16z" transform="translate(-20, -15)" fill="white"/>
	<path d="M25,24c-1.7,0-3-1.3-3-3s1.3-3,3-3s3,1.3,3,3S26.7,24,25,24z M25,19c-1.1,0-2,0.9-2,2s0.9,2,2,2s2-0.9,2-2S26.1,19,25,19z" transform="translate(-20, -15)" fill="white"
		/>
</g>
</svg>
